<svg xmlns="http://www.w3.org/2000/svg" viewBox="8191.491 -10960.678 38.19 35.797">
  <defs>
    <style>
      .cls-1 {
        fill: #fff;
      }
    </style>
  </defs>
  <g id="calendar" transform="translate(7499 -11890)">
    <path id="Path_2427" data-name="Path 2427" class="cls-1" d="M38.19,7.081a4.377,4.377,0,0,0-4.4-4.4H29.448V.977a.977.977,0,0,0-1.953,0V2.686H10.7V.977a.977.977,0,1,0-1.953,0V2.686H4.4A4.377,4.377,0,0,0,0,7.081V31.4a4.377,4.377,0,0,0,4.4,4.4h29.4a4.377,4.377,0,0,0,4.4-4.4ZM36.237,31.451a2.418,2.418,0,0,1-2.442,2.442H4.4a2.418,2.418,0,0,1-2.442-2.442v-17H36.237Zm0-18.949H1.953V7.081A2.418,2.418,0,0,1,4.4,4.639H8.742V7.325a.977.977,0,1,0,1.953,0V4.639H27.544V7.325a.977.977,0,1,0,1.953,0V4.639h4.346a2.418,2.418,0,0,1,2.442,2.442V12.5Z" transform="translate(692.491 929.322)"/>
    <path id="Path_2428" data-name="Path 2428" class="cls-1" d="M22.053,35.7h0a1.959,1.959,0,0,1,1.953,1.953h0a1.959,1.959,0,0,1-1.953,1.953h0A1.959,1.959,0,0,1,20.1,37.653h0A1.959,1.959,0,0,1,22.053,35.7Z" transform="translate(682.208 911.057)"/>
    <path id="Path_2429" data-name="Path 2429" class="cls-1" d="M32.053,35.7h0a1.959,1.959,0,0,1,1.953,1.953h0a1.959,1.959,0,0,1-1.953,1.953h0A1.959,1.959,0,0,1,30.1,37.653h0A1.959,1.959,0,0,1,32.053,35.7Z" transform="translate(677.091 911.057)"/>
    <path id="Path_2430" data-name="Path 2430" class="cls-1" d="M42.053,35.7h0a1.959,1.959,0,0,1,1.953,1.953h0a1.959,1.959,0,0,1-1.953,1.953h0A1.959,1.959,0,0,1,40.1,37.653h0A1.959,1.959,0,0,1,42.053,35.7Z" transform="translate(671.975 911.057)"/>
    <path id="Path_2431" data-name="Path 2431" class="cls-1" d="M52.053,35.7h0a1.959,1.959,0,0,1,1.953,1.953h0a1.959,1.959,0,0,1-1.953,1.953h0A1.959,1.959,0,0,1,50.1,37.653h0A1.959,1.959,0,0,1,52.053,35.7Z" transform="translate(666.858 911.057)"/>
    <path id="Path_2432" data-name="Path 2432" class="cls-1" d="M62.053,35.7h0a1.959,1.959,0,0,1,1.953,1.953h0a1.959,1.959,0,0,1-1.953,1.953h0A1.959,1.959,0,0,1,60.1,37.653h0A1.959,1.959,0,0,1,62.053,35.7Z" transform="translate(661.742 911.057)"/>
    <path id="Path_2433" data-name="Path 2433" class="cls-1" d="M12.053,45.7h0a1.959,1.959,0,0,1,1.953,1.953h0a1.959,1.959,0,0,1-1.953,1.953h0A1.959,1.959,0,0,1,10.1,47.653h0A1.959,1.959,0,0,1,12.053,45.7Z" transform="translate(687.324 905.939)"/>
    <path id="Path_2434" data-name="Path 2434" class="cls-1" d="M22.053,45.7h0a1.959,1.959,0,0,1,1.953,1.953h0a1.959,1.959,0,0,1-1.953,1.953h0A1.959,1.959,0,0,1,20.1,47.653h0A1.959,1.959,0,0,1,22.053,45.7Z" transform="translate(682.208 905.939)"/>
    <path id="Path_2435" data-name="Path 2435" class="cls-1" d="M32.053,45.7h0a1.959,1.959,0,0,1,1.953,1.953h0a1.959,1.959,0,0,1-1.953,1.953h0A1.959,1.959,0,0,1,30.1,47.653h0A1.959,1.959,0,0,1,32.053,45.7Z" transform="translate(677.091 905.939)"/>
    <path id="Path_2436" data-name="Path 2436" class="cls-1" d="M42.053,45.7h0a1.959,1.959,0,0,1,1.953,1.953h0a1.959,1.959,0,0,1-1.953,1.953h0A1.959,1.959,0,0,1,40.1,47.653h0A1.959,1.959,0,0,1,42.053,45.7Z" transform="translate(671.975 905.939)"/>
    <path id="Path_2437" data-name="Path 2437" class="cls-1" d="M52.053,45.7h0a1.959,1.959,0,0,1,1.953,1.953h0a1.959,1.959,0,0,1-1.953,1.953h0A1.959,1.959,0,0,1,50.1,47.653h0A1.959,1.959,0,0,1,52.053,45.7Z" transform="translate(666.858 905.939)"/>
    <path id="Path_2438" data-name="Path 2438" class="cls-1" d="M62.053,45.7h0a1.959,1.959,0,0,1,1.953,1.953h0a1.959,1.959,0,0,1-1.953,1.953h0A1.959,1.959,0,0,1,60.1,47.653h0A1.959,1.959,0,0,1,62.053,45.7Z" transform="translate(661.742 905.939)"/>
    <path id="Path_2439" data-name="Path 2439" class="cls-1" d="M12.053,55.7h0a1.959,1.959,0,0,1,1.953,1.953h0a1.959,1.959,0,0,1-1.953,1.953h0A1.959,1.959,0,0,1,10.1,57.653h0A1.959,1.959,0,0,1,12.053,55.7Z" transform="translate(687.324 900.824)"/>
    <path id="Path_2440" data-name="Path 2440" class="cls-1" d="M22.053,55.7h0a1.959,1.959,0,0,1,1.953,1.953h0a1.959,1.959,0,0,1-1.953,1.953h0A1.959,1.959,0,0,1,20.1,57.653h0A1.959,1.959,0,0,1,22.053,55.7Z" transform="translate(682.208 900.824)"/>
    <path id="Path_2441" data-name="Path 2441" class="cls-1" d="M32.053,55.7h0a1.959,1.959,0,0,1,1.953,1.953h0a1.959,1.959,0,0,1-1.953,1.953h0A1.959,1.959,0,0,1,30.1,57.653h0A1.959,1.959,0,0,1,32.053,55.7Z" transform="translate(677.091 900.824)"/>
    <path id="Path_2442" data-name="Path 2442" class="cls-1" d="M42.053,55.7h0a1.959,1.959,0,0,1,1.953,1.953h0a1.959,1.959,0,0,1-1.953,1.953h0A1.959,1.959,0,0,1,40.1,57.653h0A1.959,1.959,0,0,1,42.053,55.7Z" transform="translate(671.975 900.824)"/>
    <path id="Path_2443" data-name="Path 2443" class="cls-1" d="M52.053,55.7h0a1.959,1.959,0,0,1,1.953,1.953h0a1.959,1.959,0,0,1-1.953,1.953h0A1.959,1.959,0,0,1,50.1,57.653h0A1.959,1.959,0,0,1,52.053,55.7Z" transform="translate(666.858 900.824)"/>
  </g>
</svg>
