<svg xmlns="http://www.w3.org/2000/svg" viewBox="7736.609 -10961.051 26.295 36.894">
  <defs>
    <style>
      .cls-1 {
        fill: #fff;
        fill-rule: evenodd;
      }
    </style>
  </defs>
  <path id="marker" class="cls-1" d="M26.282,12.3A12.816,12.816,0,0,0,12.759,0C5.536.312-.3,6.151,0,13.22A3,3,0,0,0,.158,14.3h0c.154,6.915,13.831,22.59,13.831,22.59s12.6-16.6,12.294-23.512h0ZM13.374,19.06A5.064,5.064,0,0,1,8,14.142a5.143,5.143,0,0,1,5.071-5.225,5.253,5.253,0,0,1,5.379,4.918A5.148,5.148,0,0,1,13.374,19.06Z" transform="translate(7736.617 -10961.043)"/>
</svg>
