<svg xmlns="http://www.w3.org/2000/svg" viewBox="7996.341 -10960.928 41.494 36.297">
  <defs>
    <style>
      .cls-1 {
        fill: #fff;
        stroke: #fff;
        stroke-width: 0.5px;
      }
    </style>
  </defs>
  <path id="suitcase" class="cls-1" d="M37.818,6.928H30.023V3.176A3.2,3.2,0,0,0,26.848,0H13.568a3.2,3.2,0,0,0-3.176,3.176V6.928H3.176A3.2,3.2,0,0,0,0,10.1V32.622A3.2,3.2,0,0,0,3.176,35.8H37.818a3.2,3.2,0,0,0,3.176-3.176V10.1A3.2,3.2,0,0,0,37.818,6.928ZM12.125,3.176a1.429,1.429,0,0,1,1.443-1.443h13.28a1.429,1.429,0,0,1,1.443,1.443V6.928H12.125ZM5.485,34.065H3.176a1.429,1.429,0,0,1-1.443-1.443V10.1A1.429,1.429,0,0,1,3.176,8.661H5.485Zm28.291,0H7.217V8.661H33.776Zm5.485-1.443a1.429,1.429,0,0,1-1.443,1.443H35.508V8.661h2.309A1.429,1.429,0,0,1,39.261,10.1Z" transform="translate(7996.591 -10960.678)"/>
</svg>
