<?xml version="1.0" encoding="UTF-8"?>
<svg width="32px" height="32px" viewBox="0 0 32 32" version="1.1" xmlns="http://www.w3.org/2000/svg" xmlns:xlink="http://www.w3.org/1999/xlink">
    <!-- Generator: Sketch 49.2 (51160) - http://www.bohemiancoding.com/sketch -->
    <title>calendar</title>
    <desc>Created with Sketch.</desc>
    <defs></defs>
    <g id="calendar" stroke="none" stroke-width="1" fill="none" fill-rule="evenodd">
        <g id="icon-calendar" transform="translate(3.000000, 4.000000)" fill="#000000">
            <g id="calendar">
                <path d="M25.7873333,5.00202703 C25.7914388,4.21227733 25.4837106,3.45367003 24.9327114,2.89522491 C24.3817122,2.3367798 23.6332197,2.02489311 22.854,2.02905405 L19.9593333,2.02905405 L19.9593333,0.877702703 C19.9480858,0.521523515 19.6599434,0.238684459 19.3083333,0.238684459 C18.9567233,0.238684459 18.6685809,0.521523515 18.6573333,0.877702703 L18.6573333,2.03243243 L7.46066667,2.03243243 L7.46066667,0.877702703 C7.46826941,0.636944747 7.34587916,0.411103027 7.14133037,0.288444541 C6.93678158,0.165786054 6.68255175,0.165786054 6.47800297,0.288444541 C6.27345418,0.411103027 6.15106392,0.636944747 6.15866667,0.877702703 L6.15866667,2.03243243 L3.26066667,2.03243243 C2.4820275,2.02827882 1.73404584,2.33970312 1.18314426,2.89741484 C0.632242669,3.45512656 0.324120424,4.21286149 0.327333333,5.00202703 L0.327333333,21.4337838 C0.323227864,22.2235335 0.630956066,22.9821408 1.18195525,23.5405859 C1.73295443,24.099031 2.48144697,24.4109177 3.26066667,24.4067568 L22.8606667,24.4067568 C23.6398864,24.4109177 24.3883789,24.099031 24.9393781,23.5405859 C25.4903773,22.9821408 25.7981055,22.2235335 25.794,21.4337838 L25.7873333,5.00202703 Z M24.4853333,21.4682432 C24.4896537,21.9071782 24.3195204,22.329411 24.0132697,22.6398003 C23.7070189,22.9501896 23.2904158,23.122622 22.8573333,23.1182432 L3.26066667,23.1182432 C2.82758422,23.122622 2.4109811,22.9501896 2.10473033,22.6398003 C1.79847956,22.329411 1.62834632,21.9071782 1.63266667,21.4682432 L1.63258635,9.98175676 L24.4854137,9.98175676 L24.4853333,21.4682432 Z M24.4853333,8.66486486 L1.62925265,8.66486486 L1.62933333,5.00202703 C1.62499728,4.56249973 1.79558534,4.13974208 2.10256296,3.82925185 C2.40954058,3.51876161 2.82700951,3.34673337 3.26066667,3.35202703 L6.15533333,3.35202703 L6.15533333,5.16689189 C6.14773059,5.40764985 6.27012084,5.63349157 6.47466963,5.75615005 C6.67921842,5.87880854 6.93344825,5.87880854 7.13799703,5.75615005 C7.34254582,5.63349157 7.46493608,5.40764985 7.45733333,5.16689189 L7.45733333,3.35202703 L18.69,3.35202703 L18.69,5.16689189 C18.6823973,5.40764985 18.8047875,5.63349157 19.0093363,5.75615005 C19.2138851,5.87880854 19.4681149,5.87880854 19.6726637,5.75615005 C19.8772125,5.63349157 19.9996027,5.40764985 19.992,5.16689189 L19.992,3.35202703 L22.8893333,3.35202703 C23.3224158,3.3476483 23.7390189,3.52008063 24.0452697,3.83046993 C24.3515204,4.14085923 24.5216537,4.56309211 24.5173333,5.00202703 L24.5173333,8.66351351 L24.4853333,8.66486486 Z" id="Path_2427" fill-rule="nonzero"></path>
                <path d="M8.174,11.997973 C8.89216307,12.0001989 9.47380377,12.5896996 9.476,13.3175676 C9.47380377,14.0454355 8.89216307,14.6349363 8.174,14.6371622 C7.45583693,14.6349363 6.87419623,14.0454355 6.872,13.3175676 C6.87419623,12.5896996 7.45583693,12.0001989 8.174,11.997973 Z" id="Path_2428" fill-rule="nonzero"></path>
                <path d="M11.4293333,11.997973 C12.1474964,12.0001989 12.7291371,12.5896996 12.7313333,13.3175676 C12.7291371,14.0454355 12.1474964,14.6349363 11.4293333,14.6371622 C10.7111703,14.6349363 10.1295296,14.0454355 10.1273333,13.3175676 C10.1295296,12.5896996 10.7111703,12.0001989 11.4293333,11.997973 Z" id="Path_2429" fill-rule="nonzero"></path>
                <path d="M14.6853333,11.997973 C15.4034964,12.0001989 15.9851371,12.5896996 15.9873333,13.3175676 C15.9851371,14.0454355 15.4034964,14.6349363 14.6853333,14.6371622 C13.9671703,14.6349363 13.3855296,14.0454355 13.3833333,13.3175676 C13.3855296,12.5896996 13.9671703,12.0001989 14.6853333,11.997973 Z" id="Path_2430" fill-rule="nonzero"></path>
                <path d="M17.9406667,11.997973 C18.6588297,12.0001989 19.2404704,12.5896996 19.2426667,13.3175676 C19.2404704,14.0454355 18.6588297,14.6349363 17.9406667,14.6371622 C17.2225036,14.6349363 16.6408629,14.0454355 16.6386667,13.3175676 C16.6408629,12.5896996 17.2225036,12.0001989 17.9406667,11.997973 Z" id="Path_2431" fill-rule="nonzero"></path>
                <path d="M21.1966667,11.997973 C21.9148297,12.0001989 22.4964704,12.5896996 22.4986667,13.3175676 C22.4964704,14.0454355 21.9148297,14.6349363 21.1966667,14.6371622 C20.4785036,14.6349363 19.8968629,14.0454355 19.8946667,13.3175676 C19.8968629,12.5896996 20.4785036,12.0001989 21.1966667,11.997973 Z" id="Path_2432" fill-rule="nonzero"></path>
                <path d="M4.918,15.2966216 C5.63616307,15.2988475 6.21780377,15.8883482 6.22,16.6162162 C6.21780377,17.3440842 5.63616307,17.9335849 4.918,17.9358108 C4.19983693,17.9335849 3.61819623,17.3440842 3.616,16.6162162 C3.61819623,15.8883482 4.19983693,15.2988475 4.918,15.2966216 Z" id="Path_2433" fill-rule="nonzero"></path>
                <path d="M8.174,15.2966216 C8.89216307,15.2988475 9.47380377,15.8883482 9.476,16.6162162 C9.47380377,17.3440842 8.89216307,17.9335849 8.174,17.9358108 C7.45583693,17.9335849 6.87419623,17.3440842 6.872,16.6162162 C6.87419623,15.8883482 7.45583693,15.2988475 8.174,15.2966216 Z" id="Path_2434" fill-rule="nonzero"></path>
                <path d="M11.4293333,15.2966216 C12.1474964,15.2988475 12.7291371,15.8883482 12.7313333,16.6162162 C12.7291371,17.3440842 12.1474964,17.9335849 11.4293333,17.9358108 C10.7111703,17.9335849 10.1295296,17.3440842 10.1273333,16.6162162 C10.1295296,15.8883482 10.7111703,15.2988475 11.4293333,15.2966216 Z" id="Path_2435" fill-rule="nonzero"></path>
                <path d="M14.6853333,15.2966216 C15.4034964,15.2988475 15.9851371,15.8883482 15.9873333,16.6162162 C15.9851371,17.3440842 15.4034964,17.9335849 14.6853333,17.9358108 C13.9671703,17.9335849 13.3855296,17.3440842 13.3833333,16.6162162 C13.3855296,15.8883482 13.9671703,15.2988475 14.6853333,15.2966216 Z" id="Path_2436" fill-rule="nonzero"></path>
                <path d="M17.9406667,15.2966216 C18.6588297,15.2988475 19.2404704,15.8883482 19.2426667,16.6162162 C19.2404704,17.3440842 18.6588297,17.9335849 17.9406667,17.9358108 C17.2225036,17.9335849 16.6408629,17.3440842 16.6386667,16.6162162 C16.6408629,15.8883482 17.2225036,15.2988475 17.9406667,15.2966216 Z" id="Path_2437" fill-rule="nonzero"></path>
                <path d="M21.1966667,15.2966216 C21.9148297,15.2988475 22.4964704,15.8883482 22.4986667,16.6162162 C22.4964704,17.3440842 21.9148297,17.9335849 21.1966667,17.9358108 C20.4785036,17.9335849 19.8968629,17.3440842 19.8946667,16.6162162 C19.8968629,15.8883482 20.4785036,15.2988475 21.1966667,15.2966216 Z" id="Path_2438" fill-rule="nonzero"></path>
                <path d="M4.918,18.5972973 C5.63616307,18.5995232 6.21780377,19.1890239 6.22,19.9168919 C6.21780377,20.6447599 5.63616307,21.2342606 4.918,21.2364865 C4.19983693,21.2342606 3.61819623,20.6447599 3.616,19.9168919 C3.61819623,19.1890239 4.19983693,18.5995232 4.918,18.5972973 Z" id="Path_2439" fill-rule="nonzero"></path>
                <path d="M8.174,18.5972973 C8.89216307,18.5995232 9.47380377,19.1890239 9.476,19.9168919 C9.47380377,20.6447599 8.89216307,21.2342606 8.174,21.2364865 C7.45583693,21.2342606 6.87419623,20.6447599 6.872,19.9168919 C6.87419623,19.1890239 7.45583693,18.5995232 8.174,18.5972973 Z" id="Path_2440" fill-rule="nonzero"></path>
                <path d="M11.4293333,18.5972973 C12.1474964,18.5995232 12.7291371,19.1890239 12.7313333,19.9168919 C12.7291371,20.6447599 12.1474964,21.2342606 11.4293333,21.2364865 C10.7111703,21.2342606 10.1295296,20.6447599 10.1273333,19.9168919 C10.1295296,19.1890239 10.7111703,18.5995232 11.4293333,18.5972973 Z" id="Path_2441" fill-rule="nonzero"></path>
                <path d="M14.6853333,18.5972973 C15.4034964,18.5995232 15.9851371,19.1890239 15.9873333,19.9168919 C15.9851371,20.6447599 15.4034964,21.2342606 14.6853333,21.2364865 C13.9671703,21.2342606 13.3855296,20.6447599 13.3833333,19.9168919 C13.3855296,19.1890239 13.9671703,18.5995232 14.6853333,18.5972973 Z" id="Path_2442" fill-rule="nonzero"></path>
                <path d="M17.9406667,18.5972973 C18.6588297,18.5995232 19.2404704,19.1890239 19.2426667,19.9168919 C19.2404704,20.6447599 18.6588297,21.2342606 17.9406667,21.2364865 C17.2225036,21.2342606 16.6408629,20.6447599 16.6386667,19.9168919 C16.6408629,19.1890239 17.2225036,18.5995232 17.9406667,18.5972973 Z" id="Path_2443" fill-rule="nonzero"></path>
            </g>
        </g>
    </g>
</svg>