<?xml version="1.0" encoding="UTF-8"?>
<svg width="32px" height="32px" viewBox="0 0 32 32" version="1.1" xmlns="http://www.w3.org/2000/svg" xmlns:xlink="http://www.w3.org/1999/xlink">
    <!-- Generator: Sketch 49.2 (51160) - http://www.bohemiancoding.com/sketch -->
    <title>clock</title>
    <desc>Created with Sketch.</desc>
    <defs></defs>
    <g id="clock" stroke="none" stroke-width="1" fill="none" fill-rule="evenodd">
        <g transform="translate(4.000000, 4.000000)" fill="#000000" fill-rule="nonzero">
            <path d="M12.518195,25 C19.4217435,24.9899512 25.0100304,19.3853728 24.9999865,12.4818205 C24.9899425,5.57826835 19.3853711,-0.0100255913 12.4818226,1.35048917e-05 C5.57827414,0.0100526011 -0.0100207303,5.61462314 1.34917895e-05,12.5181754 C0.0324871569,19.4123869 5.62392187,24.9875823 12.518195,25 Z M12.518195,2.12157905 C18.2452859,2.13162111 22.8817517,6.77894165 22.8784043,12.5060435 C22.875057,18.2331453 18.2331619,22.8750429 12.5060632,22.8783903 C6.77896443,22.8817376 2.1316464,18.2452694 2.12160435,12.5181754 C2.13036505,6.77992648 6.77994926,2.13033975 12.518195,2.12157905 Z" id="Path_2444"></path>
            <path d="M12.1016913,14 L17.9349248,14 C18.5287035,13.9813717 19,13.5146537 19,12.9452715 C19,12.3758894 18.5287035,11.9091713 17.9349248,11.8905431 L13.2016119,11.8905431 L13.2016119,6.08981902 C13.2147633,5.70476845 13.0079311,5.34344813 12.6620198,5.14719206 C12.3161085,4.95093598 11.8860952,4.95093598 11.5401839,5.14719206 C11.1942726,5.34344813 10.9874405,5.70476845 11.0005919,6.08981902 L11.0005919,12.9435767 C11.0142769,13.5210663 11.4991503,13.9862663 12.1016913,14 Z" id="Path_2445"></path>
        </g>
    </g>
</svg>