<?xml version="1.0" encoding="utf-8"?>
<!-- Generated by IcoMoon.io -->
<!DOCTYPE svg PUBLIC "-//W3C//DTD SVG 1.1//EN" "http://www.w3.org/Graphics/SVG/1.1/DTD/svg11.dtd">
<svg version="1.1" xmlns="http://www.w3.org/2000/svg" xmlns:xlink="http://www.w3.org/1999/xlink" width="32" height="32" viewBox="0 0 32 32">
<path fill="#444444" d="M10.9 6.2c0 0.8 0 4.4 0 4.4h-3.1v5.4h3.1v16h6.5v-16h4.3c0 0 0.4-2.6 0.6-5.4-0.6 0-4.9 0-4.9 0s0-3.1 0-3.7c0-0.6 0.7-1.3 1.4-1.3s2.2 0 3.5 0c0-0.7 0-3.3 0-5.6-1.8 0-3.9 0-4.8 0-6.7 0-6.6 5.4-6.6 6.2z"></path>
</svg>
