<?xml version="1.0" encoding="iso-8859-1"?>
<svg width="42px" height="42px" viewBox="0 0 42 42" version="1.1" xmlns="http://www.w3.org/2000/svg" xmlns:xlink="http://www.w3.org/1999/xlink">
    <g id="Symbols" stroke="none" stroke-width="1" fill="none" fill-rule="evenodd">
        <g id="icon/instagram" transform="translate(-7.000000, -7.000000)" fill="currentColor">
            <g id="iconfinder_38-instagram_1161953" transform="translate(7.000000, 7.000000)">
                <path d="M37.8823529,4.03529412 C40.0235294,6.17647059 41.1764706,9.14117647 41.1764706,12.6 L41.1764706,29.5647059 C41.1764706,33.1058824 40.0235294,36.1529412 37.8,38.2941176 C35.6588235,40.3529412 32.6941176,41.5058824 29.1529412,41.5058824 L12.3529412,41.5058824 C8.97647059,41.5058824 6.01176471,40.4352941 3.78823529,38.2941176 C1.48235294,36.0705882 0.329411765,33.0235294 0.329411765,29.4823529 L0.329411765,12.6 C0.329411765,5.43529412 5.10588235,0.658823529 12.2705882,0.658823529 L29.2352941,0.658823529 C32.6941176,0.658823529 35.7411765,1.81176471 37.8823529,4.03529412 Z M20.7529412,10.4588235 C14.9882353,10.4588235 10.2117647,15.1529412 10.2117647,21 C10.2117647,26.8470588 14.9058824,31.5411765 20.7529412,31.5411765 C26.6,31.5411765 31.2941176,26.7647059 31.2941176,21 C31.2941176,15.2352941 26.5176471,10.4588235 20.7529412,10.4588235 Z M20.7529412,27.7529412 C17.0470588,27.7529412 14,24.7058824 14,21 C14,17.2941176 17.0470588,14.2470588 20.7529412,14.2470588 C24.4588235,14.2470588 27.5058824,17.2941176 27.5058824,21 C27.5058824,24.7058824 24.4588235,27.7529412 20.7529412,27.7529412 Z M31.7058824,12.6 C33.0248683,12.6 34.0941176,11.5307506 34.0941176,10.2117647 C34.0941176,8.89277877 33.0248683,7.82352941 31.7058824,7.82352941 C30.3868964,7.82352941 29.3176471,8.89277877 29.3176471,10.2117647 C29.3176471,11.5307506 30.3868964,12.6 31.7058824,12.6 Z" id="Combined-Shape"></path>
            </g>
        </g>
    </g>
</svg>