<?xml version="1.0" encoding="utf-8"?>
<!-- Generated by IcoMoon.io -->
<!DOCTYPE svg PUBLIC "-//W3C//DTD SVG 1.1//EN" "http://www.w3.org/Graphics/SVG/1.1/DTD/svg11.dtd">
<svg version="1.1" xmlns="http://www.w3.org/2000/svg" xmlns:xlink="http://www.w3.org/1999/xlink" width="32" height="32" viewBox="0 0 32 32">
<path fill="#000" d="M31.9 19.4v11.6h-6.8v-10.8c0-2.7-1-4.6-3.4-4.6-1.9 0-3 1.3-3.5 2.5-0.2 0.4-0.2 1-0.2 1.6v11.3h-6.8c0 0 0.1-18.4 0-20.3h6.8v2.9c0 0 0 0 0 0.1v0-0.1c0.9-1.4 2.5-3.4 6.1-3.4 4.5 0.1 7.8 3 7.8 9.2zM4.2 1c-2.3 0-3.9 1.5-3.9 3.5 0 1.9 1.5 3.5 3.8 3.5v0c2.4 0 3.9-1.6 3.9-3.5-0.1-2-1.5-3.5-3.8-3.5zM0.8 31h6.8v-20.3h-6.8v20.3z"></path>
</svg>
