<?xml version="1.0" encoding="utf-8"?>
<!-- Generated by IcoMoon.io -->
<!DOCTYPE svg PUBLIC "-//W3C//DTD SVG 1.1//EN" "http://www.w3.org/Graphics/SVG/1.1/DTD/svg11.dtd">
<svg version="1.1" xmlns="http://www.w3.org/2000/svg" xmlns:xlink="http://www.w3.org/1999/xlink" width="32" height="32" viewBox="0 0 32 32">
<path fill="#000" d="M3.7 2c-2 0-3.7 1.6-3.7 3.6s1.6 3.6 3.7 3.6c2 0 3.7-1.6 3.7-3.6s-1.7-3.6-3.7-3.6zM3.7 7.3c-1 0-1.8-0.8-1.8-1.7 0-1 0.8-1.7 1.8-1.7s1.8 0.8 1.8 1.7c0 0.9-0.8 1.7-1.8 1.7zM11.9 7.3h19.2c0.5 0 0.9-1.2 0.9-1.7s-0.4-1.8-0.9-1.8h-19.2c-0.5 0-0.9 1.3-0.9 1.8-0.1 0.5 0.3 1.7 0.9 1.7zM3.7 12.6c-2 0-3.7 1.6-3.7 3.6s1.6 3.6 3.7 3.6c2 0 3.7-1.6 3.7-3.6s-1.7-3.6-3.7-3.6zM3.7 17.9c-1 0-1.8-0.8-1.8-1.7 0-1 0.8-1.7 1.8-1.7s1.8 0.8 1.8 1.7c0 0.9-0.8 1.7-1.8 1.7zM31.1 14.4h-19.2c-0.5 0-0.9 1.3-0.9 1.8s0.4 1.7 0.9 1.7h19.2c0.5 0 0.9-1.2 0.9-1.7s-0.4-1.8-0.9-1.8zM3.7 23.2c-2 0-3.7 1.6-3.7 3.6s1.6 3.6 3.7 3.6c2 0 3.7-1.6 3.7-3.6s-1.7-3.6-3.7-3.6zM3.7 28.5c-1 0-1.8-0.8-1.8-1.7 0-1 0.8-1.7 1.8-1.7s1.8 0.8 1.8 1.7c0 0.9-0.8 1.7-1.8 1.7zM31.1 25h-19.2c-0.5 0-0.9 1.3-0.9 1.8s0.4 1.8 0.9 1.8h19.2c0.5 0 0.9-1.3 0.9-1.8s-0.4-1.8-0.9-1.8z"></path>
</svg>
