<?xml version="1.0" encoding="UTF-8"?>
<svg width="32px" height="32px" viewBox="0 0 32 32" version="1.1" xmlns="http://www.w3.org/2000/svg" xmlns:xlink="http://www.w3.org/1999/xlink">
    <!-- Generator: Sketch 49.2 (51160) - http://www.bohemiancoding.com/sketch -->
    <title>marker</title>
    <desc>Created with Sketch.</desc>
    <defs></defs>
    <g id="marker" stroke="none" stroke-width="1" fill="none" fill-rule="evenodd">
        <g transform="translate(7.000000, 3.000000)" fill="#000000">
            <path d="M18.9953152,9.01222563 C18.8992184,6.49969447 17.8103743,4.13155892 15.973337,2.43970147 C14.1362996,0.747844019 11.7050631,-0.125911216 9.22568245,0.0146809067 C4.00745742,0.242911309 -0.208735479,4.51418478 0.00799821987,9.68521272 C-0.00198393848,9.95340742 0.0367050876,10.2211813 0.122144635,10.475241 C0.233401267,15.5336168 10.1142906,27 10.1142906,27 C10.1142906,27 19.217106,14.8569722 18.9960376,9.80079093 L18.9953152,9.01222563 Z M9.66998653,13.9572177 C8.67958168,14.0190885 7.70683904,13.6709529 6.97481596,12.9926411 C6.24279287,12.3143293 5.81428899,11.3640332 5.78756353,10.3596628 C5.77173476,9.36059449 6.14907038,8.39618916 6.8363427,7.67916258 C7.52361502,6.96213601 8.46436177,6.5513949 9.4510855,6.53753508 C11.4909946,6.48381333 13.2076753,8.07305598 13.3371207,10.13509 C13.3519806,11.1344999 12.9738344,12.0988933 12.2859888,12.8158111 C11.5981432,13.5327289 10.6570325,13.9433516 9.66998653,13.9572177 Z"></path>
        </g>
    </g>
</svg>