<?xml version="1.0" encoding="utf-8"?>
<!-- Generated by IcoMoon.io -->
<!DOCTYPE svg PUBLIC "-//W3C//DTD SVG 1.1//EN" "http://www.w3.org/Graphics/SVG/1.1/DTD/svg11.dtd">
<svg version="1.1" xmlns="http://www.w3.org/2000/svg" xmlns:xlink="http://www.w3.org/1999/xlink" width="32" height="32" viewBox="0 0 32 32">
<path fill="#000" d="M31.5 29.5l-7.9-7.9c-0.1-0.1-0.1-0.1-0.2-0.1 1.8-2.3 2.9-5.1 2.9-8.2 0-7.2-5.9-13.1-13.1-13.1-7.2-0.1-13.1 5.8-13.1 13s5.9 13.1 13.1 13.1c3.1 0 6-1.1 8.2-2.9 0 0.1 0.1 0.2 0.1 0.2l7.9 7.9c0.3 0.3 0.6 0.4 1 0.4s0.7-0.1 1-0.4c0.6-0.6 0.6-1.5 0.1-2zM13.2 23.5c-5.7 0-10.3-4.6-10.3-10.3s4.6-10.3 10.3-10.3c5.7 0 10.3 4.6 10.3 10.3s-4.6 10.3-10.3 10.3z"></path>
</svg>
