<?xml version="1.0" encoding="UTF-8"?>
<svg width="32px" height="32px" viewBox="0 0 32 32" version="1.1" xmlns="http://www.w3.org/2000/svg" xmlns:xlink="http://www.w3.org/1999/xlink">
    <!-- Generator: Sketch 49.2 (51160) - http://www.bohemiancoding.com/sketch -->
    <title>suitcase</title>
    <desc>Created with Sketch.</desc>
    <defs></defs>
    <g id="suitcase" stroke="none" stroke-width="1" fill="none" fill-rule="evenodd">
        <g transform="translate(3.000000, 4.000000)" fill="#000000" fill-rule="nonzero">
            <g>
                <path d="M24.6915,4.7027027 L19.6804286,4.7027027 L19.6804286,2.26897297 C19.6720334,1.13498643 18.7632161,0.217692744 17.6393571,0.208864865 L9.10221429,0.208864865 C7.97810427,0.217340216 7.06889968,1.13473584 7.0605,2.26897297 L7.0605,4.7027027 L2.42164286,4.7027027 C1.2985257,4.7111591 0.389724851,5.62699245 0.379928571,6.76021622 L0.379928571,21.3690811 C0.387629027,22.5038248 1.29703584,23.4220023 2.42164286,23.4304865 L24.6915,23.4304865 C25.81561,23.4220111 26.7248146,22.5046155 26.7332143,21.3703784 L26.7332143,6.76021622 C26.723418,5.62699245 25.8146172,4.7111591 24.6915,4.7027027 Z M8.17457143,2.26897297 C8.1721418,2.01998689 8.26909492,1.78048459 8.44359117,1.60441631 C8.61808741,1.42834803 8.85545129,1.33052145 9.10221429,1.33297297 L17.6393571,1.33297297 C17.8861201,1.33052145 18.123484,1.42834803 18.2979803,1.60441631 C18.4724765,1.78048459 18.5694296,2.01998689 18.567,2.26897297 L18.5670446,4.7027027 L8.17452684,4.7027027 L8.17457143,2.26897297 Z M3.906,22.3051261 L2.42164286,22.3050811 C2.17487986,22.3075326 1.93751598,22.209706 1.76301974,22.0336377 C1.5885235,21.8575695 1.49157037,21.6180672 1.494,21.3690811 L1.494,6.76021622 C1.49226436,6.51167804 1.58952385,6.27284861 1.76394365,6.09734531 C1.93836345,5.92184201 2.17532954,5.82436964 2.42164286,5.82681081 L3.906,5.82676604 L3.906,22.3051261 Z M22.0930714,22.3050811 L5.01942857,22.3050811 L5.01942857,5.82681081 L22.0930714,5.82681081 L22.0930714,22.3050811 Z M25.6191429,21.3690811 C25.6215725,21.6180672 25.5246194,21.8575695 25.3501231,22.0336377 C25.1756269,22.209706 24.938263,22.3075326 24.6915,22.3050811 L23.2065,22.3051261 L23.2065,5.82675943 L24.6908571,5.82681081 C24.9372813,5.8241945 25.1744141,5.92158949 25.3489739,6.09711204 C25.5235337,6.27263458 25.620881,6.51156442 25.6191429,6.76021622 L25.6191429,21.3690811 Z"></path>
            </g>
        </g>
    </g>
</svg>