<?xml version="1.0" encoding="utf-8"?>
<!-- Generated by IcoMoon.io -->
<!DOCTYPE svg PUBLIC "-//W3C//DTD SVG 1.1//EN" "http://www.w3.org/Graphics/SVG/1.1/DTD/svg11.dtd">
<svg version="1.1" xmlns="http://www.w3.org/2000/svg" xmlns:xlink="http://www.w3.org/1999/xlink" width="32" height="32" viewBox="0 0 32 32">
<path fill="#000" d="M28.2 15.1c1.8-0.1 3-0.9 3.4-2-0.6 0.4-2.6 0.8-3.7 0.4-0.1-0.3-0.1-0.5-0.2-0.7-0.8-3-3.7-5.5-6.7-5.2 0.2-0.1 0.5-0.2 0.7-0.3 0.3-0.1 2.3-0.4 2-1.1-0.3-0.6-2.6 0.4-3.1 0.6 0.6-0.2 1.6-0.6 1.7-1.3-0.9 0.1-1.8 0.5-2.5 1.2 0.2-0.3 0.4-0.6 0.5-0.9-2.4 1.5-3.8 4.6-4.9 7.5-0.9-0.9-1.7-1.5-2.4-1.9-2-1.1-4.4-2.2-8.1-3.5-0.1 1.2 0.6 2.8 2.7 3.9-0.5-0.1-1.3 0.1-1.9 0.2 0.3 1.4 1.2 2.6 3.5 3.1-1.1 0.1-1.6 0.3-2.2 0.9 0.5 1 1.7 2.1 3.9 1.9-2.4 1-1 2.9 1 2.7-3.4 3.4-8.7 3.2-11.7 0.3 8 10.7 25.3 6.3 27.8-4 1.9 0 3.1-0.7 3.8-1.4-1.1 0.1-2.7-0.1-3.6-0.4z"></path>
</svg>
