<?xml version="1.0" encoding="utf-8"?>
<!-- Generated by IcoMoon.io -->
<!DOCTYPE svg PUBLIC "-//W3C//DTD SVG 1.1//EN" "http://www.w3.org/Graphics/SVG/1.1/DTD/svg11.dtd">
<svg version="1.1" xmlns="http://www.w3.org/2000/svg" xmlns:xlink="http://www.w3.org/1999/xlink" width="32" height="32" viewBox="0 0 32 32">
<path fill="#000" d="M27.2 2.3c-4.4-0.1-7.4 2.3-9 7.4 0.8-0.3 1.6-0.5 2.4-0.5 1.6 0 2.3 0.9 2.1 2.7-0.1 1.1-0.8 2.7-2.1 4.8s-2.3 3.1-3 3.1c-0.9 0-1.6-1.6-2.4-4.9-0.2-1-0.7-3.4-1.3-7.3-0.6-3.6-2.1-5.3-4.6-5.1-1 0.1-2.6 1-4.7 2.9-1.5 1.4-3 2.8-4.6 4.2l1.5 1.9c1.4-1 2.3-1.5 2.5-1.5 1.1 0 2.1 1.7 3.1 5.1 0.9 3.1 1.7 6.3 2.6 9.4 1.3 3.4 2.8 5.1 4.7 5.1 3 0 6.7-2.8 11-8.4 4.2-5.4 6.3-9.6 6.5-12.7 0.1-4-1.5-6.1-4.7-6.2z"></path>
</svg>
