<?xml version="1.0" encoding="utf-8"?>
<svg width="46px" height="46px" viewBox="0 0 46 46" version="1.1" xmlns="http://www.w3.org/2000/svg" xmlns:xlink="http://www.w3.org/1999/xlink">
    <g id="Styleguide" stroke="none" stroke-width="1" fill="none" fill-rule="evenodd">
        <g id="icon/whatsapp" transform="translate(-5.000000, -5.000000)" fill="currentColor">
            <g id="iconfinder_23-whatsapp_843786" transform="translate(5.000000, 5.000000)">
                <path d="M39.2978369,6.68484096 C43.622054,10.9932032 46.0022282,16.720106 46,22.8108273 C45.9946975,35.3788502 35.7192547,45.6047221 23.0963638,45.6047221 C23.0956201,45.6047221 23.0969217,45.6047221 23.0961779,45.6047221 L23.0868807,45.6047221 C19.2535554,45.6034267 15.4869839,44.6462288 12.1416682,42.8302823 L1.77635684e-14,46 L3.24936868,34.1882051 C1.24498701,30.7314668 0.190313525,26.8101475 0.192079991,22.7925994 C0.197007503,10.2248541 10.4717995,1.98951966e-13 23.0959919,1.98951966e-13 C29.2229346,0.00249824499 34.9735269,2.37629363 39.2978369,6.68484096 Z M23.0960849,41.7551116 C33.5887101,41.7551116 42.1284601,33.2558971 42.1327384,22.8092544 C42.1347822,17.7469773 40.1565256,12.9868953 36.562417,9.40579987 C32.9682155,5.82470446 28.188436,3.8513685 23.1038016,3.84979553 C12.6033667,3.84979553 4.06333786,12.3480848 4.05924545,22.7938948 C4.05775954,26.3736948 5.0641806,29.8601345 6.96973312,32.876534 L7.42241341,33.5934378 L5.49919623,40.5846376 L12.7042413,38.7037367 L13.3992994,39.1142816 C16.3221507,40.8403839 19.6725798,41.7538163 23.0883682,41.7551116 L23.0960849,41.7551116 Z M33.5381334,27.5657278 C34.1103756,27.8508978 34.4919323,27.9934828 34.6349232,28.2310012 C34.7780999,28.468427 34.7780999,29.6089221 34.301154,30.9394689 C33.824301,32.269738 31.5379355,33.4839776 30.4383565,33.6474739 C29.4522963,33.7941301 28.2047061,33.8553834 26.8337421,33.4217991 C26.0026661,33.1593908 24.9366501,32.8089889 23.5712644,32.2220863 C17.8304342,29.7550231 14.0810625,24.0023977 13.7949879,23.6221093 C13.5088203,23.2420984 11.4581386,20.5338158 11.4581386,17.7303223 C11.4581386,14.9271989 12.9366711,13.5491855 13.4612187,12.9789379 C13.9856733,12.4088754 14.605796,12.2662904 14.9872598,12.2662904 C15.3687236,12.2662904 15.7507452,12.2697139 16.0840496,12.2862763 C16.4353905,12.3039491 16.90713,12.1534993 17.3718037,13.2639229 C17.8486567,14.4045105 18.993141,17.2079115 19.1362248,17.492989 C19.2794016,17.777974 19.3746978,18.1106107 19.1839194,18.4908066 C18.993141,18.8706323 18.8977518,19.1084283 18.6116772,19.4408799 C18.3255096,19.7735166 18.0106137,20.1834138 17.7531745,20.4386975 C17.466635,20.7227572 17.1683811,21.0309666 17.5021503,21.6010291 C17.8361054,22.1713691 18.9845876,24.0363553 20.6859738,25.5466832 C22.8718366,27.4870793 24.7158417,28.0884161 25.2880839,28.3734937 C25.8602331,28.6588488 26.1941883,28.611012 26.5279575,28.2310937 C26.8618197,27.8508978 27.9586094,26.5679102 28.3400732,25.9978477 C28.721537,25.4276927 29.1030938,25.5227185 29.6276414,25.7127702 C30.152189,25.9030069 32.9658912,27.2806503 33.5381334,27.5657278 Z" id="Combined-Shape"></path>
            </g>
        </g>
    </g>
</svg>