<?xml version="1.0" encoding="UTF-8" standalone="no"?>
<svg width="26px" height="28px" viewBox="0 0 26 28" version="1.1" xmlns="http://www.w3.org/2000/svg" xmlns:xlink="http://www.w3.org/1999/xlink" xmlns:sketch="http://www.bohemiancoding.com/sketch/ns">
    <!-- Generator: Sketch 3.4.2 (15855) - http://www.bohemiancoding.com/sketch -->
    <title>Shape</title>
    <desc>Created with Sketch.</desc>
    <defs></defs>
    <g id="Page-1" stroke="none" stroke-width="1" fill="none" fill-rule="evenodd" sketch:type="MSPage">
        <path d="M25.05,16.045053 L25.05,24.0832155 C25.05,24.5962898 24.9644876,25.0238516 24.7079505,25.4514134 C24.5369258,25.8789753 24.1948763,26.2210247 23.8528269,26.5630742 C23.5107774,26.9051237 23.0832155,27.1616608 22.5701413,27.3326855 C22.0570671,27.5037102 21.5439929,27.5892226 21.0309187,27.5892226 L4.86908127,27.5892226 C4.35600707,27.5892226 3.84293286,27.5037102 3.32985866,27.3326855 C2.81678445,27.1616608 2.47473498,26.9051237 2.04717314,26.5630742 C1.70512367,26.2210247 1.3630742,25.8789753 1.19204947,25.4514134 C1.02102473,25.0238516 0.85,24.5962898 0.85,24.0832155 L0.85,16.045053 C0.85,15.5319788 0.935512367,15.104417 1.19204947,14.6768551 C1.3630742,14.2492933 1.70512367,13.9072438 2.04717314,13.5651943 C2.38922261,13.2231449 2.81678445,12.9666078 3.32985866,12.795583 C3.84293286,12.6245583 4.35600707,12.5390459 4.86908127,12.5390459 L21.0309187,12.5390459 C21.5439929,12.5390459 22.0570671,12.6245583 22.5701413,12.795583 C23.0832155,12.9666078 23.5107774,13.2231449 23.8528269,13.5651943 C24.1948763,13.9072438 24.5369258,14.2492933 24.7079505,14.6768551 C24.9644876,15.104417 25.05,15.6174912 25.05,16.045053 L25.05,16.045053 Z M5.98074205,25.0238516 L5.98074205,16.5581272 L7.9475265,16.5581272 L7.9475265,15.2754417 L2.56024735,15.2754417 L2.56024735,16.5581272 L4.2704947,16.5581272 L4.2704947,25.109364 L5.98074205,25.109364 L5.98074205,25.0238516 Z M6.75035336,5.2704947 L4.5270318,0.310777385 L6.49381625,0.310777385 L7.60547703,3.98780919 L8.71713781,0.310777385 L10.6839223,0.310777385 L8.63162544,5.2704947 L8.63162544,10.9998233 L6.75035336,10.9998233 L6.75035336,5.2704947 L6.75035336,5.2704947 Z M11.9666078,17.7553004 L10.3418728,17.7553004 L10.3418728,22.2874558 L10.3418728,23.0570671 C10.3418728,23.2280919 10.3418728,23.3136042 10.2563604,23.3991166 C10.1708481,23.484629 10.0853357,23.7411661 9.82879859,23.8266784 C9.57226148,23.9121908 9.40123675,23.8266784 9.31572438,23.3991166 L9.31572438,23.0570671 L9.31572438,22.2874558 L9.31572438,17.669788 L7.60547703,17.669788 L7.60547703,22.2019435 L7.60547703,23.0570671 L7.60547703,23.5701413 C7.60547703,23.7411661 7.6909894,23.9977032 7.6909894,24.1687279 C7.6909894,24.425265 7.86201413,24.5962898 8.03303887,24.6818021 C8.2040636,24.7673145 8.46060071,24.8528269 8.71713781,24.8528269 C8.97367491,24.8528269 9.23021201,24.7673145 9.48674912,24.6818021 C9.74328622,24.5962898 9.99982332,24.5107774 10.1708481,24.3397527 C10.3418728,24.1687279 10.5128975,23.9977032 10.5984099,23.8266784 L10.5984099,24.7673145 L11.9666078,24.7673145 L11.9666078,17.7553004 L11.9666078,17.7553004 Z M10.5128975,6.04010601 C10.5128975,5.35600707 10.5984099,4.84293286 10.6839223,4.32985866 C10.854947,3.90229682 11.0259717,3.56024735 11.3680212,3.38922261 C11.7100707,3.13268551 12.1376325,3.04717314 12.6507067,3.04717314 C13.0782686,3.04717314 13.5058304,3.13268551 13.7623675,3.30371025 C14.0189046,3.38922261 14.2754417,3.64575972 14.5319788,3.98780919 C14.6174912,4.07332155 14.7030035,4.32985866 14.7885159,4.58639576 C14.8740283,4.92844523 14.8740283,5.2704947 14.8740283,5.7835689 L14.8740283,7.75035336 C14.8740283,8.4344523 14.8740283,8.9475265 14.7885159,9.28957597 C14.7885159,9.54611307 14.6174912,9.88816254 14.4464664,10.230212 C14.1899293,10.5722615 14.0189046,10.7432862 13.7623675,10.8287986 C13.420318,10.9998233 13.0782686,11.0853357 12.7362191,11.0853357 C12.3086572,11.0853357 11.9666078,10.9998233 11.6245583,10.914311 C11.2825088,10.8287986 11.1114841,10.6577739 10.9404594,10.4012367 C10.7694346,10.230212 10.6839223,9.88816254 10.5984099,9.54611307 C10.5128975,9.2040636 10.5128975,8.6909894 10.5128975,8.00689046 L10.5128975,6.04010601 L10.5128975,6.04010601 Z M11.9666078,9.03303887 C11.9666078,9.2040636 12.0521201,9.37508834 12.2231449,9.54611307 C12.3941696,9.71713781 12.5651943,9.80265018 12.7362191,9.80265018 C12.9072438,9.80265018 13.0782686,9.71713781 13.2492933,9.54611307 C13.420318,9.37508834 13.5058304,9.2040636 13.5058304,9.03303887 L13.5058304,5.0139576 C13.5058304,4.75742049 13.420318,4.58639576 13.2492933,4.41537102 C13.0782686,4.24434629 12.9072438,4.15883392 12.7362191,4.15883392 C12.5651943,4.15883392 12.3941696,4.24434629 12.2231449,4.41537102 C12.0521201,4.58639576 11.9666078,4.75742049 11.9666078,5.0139576 L11.9666078,9.03303887 L11.9666078,9.03303887 Z M17.3538869,22.9715548 L17.3538869,19.2090106 C17.3538869,18.5249117 17.0973498,18.0118375 16.5842756,17.669788 C16.4132509,17.5842756 16.2422261,17.4987633 15.985689,17.4987633 C15.5581272,17.4987633 15.1305654,17.669788 14.6174912,18.0973498 L14.6174912,15.2754417 L12.9927562,15.2754417 L12.9927562,25.0238516 L14.3609541,25.0238516 L14.4464664,24.425265 C14.8740283,24.7673145 15.3015901,25.0238516 15.6436396,25.109364 C15.985689,25.1948763 16.3277385,25.1948763 16.5842756,25.0238516 C16.8408127,24.8528269 17.0118375,24.5962898 17.1828622,24.2542403 C17.2683746,23.8266784 17.3538869,23.3991166 17.3538869,22.9715548 L17.3538869,22.9715548 Z M15.3871025,18.4393993 C15.5581272,18.4393993 15.7291519,18.5249117 15.9001767,18.610424 C16.0712014,18.6959364 16.1567138,18.8669611 16.1567138,19.0379859 L16.1567138,23.3136042 C16.1567138,23.484629 16.0712014,23.5701413 15.9001767,23.7411661 C15.7291519,23.8266784 15.5581272,23.9121908 15.3871025,23.9121908 C15.2160777,23.9121908 15.045053,23.8266784 14.8740283,23.7411661 C14.7030035,23.6556537 14.6174912,23.484629 14.6174912,23.3136042 L14.6174912,19.0379859 C14.6174912,18.8669611 14.7030035,18.7814488 14.8740283,18.610424 C14.9595406,18.5249117 15.1305654,18.4393993 15.3871025,18.4393993 L15.3871025,18.4393993 Z M16.1567138,10.230212 C16.1567138,10.1446996 16.0712014,10.0591873 16.0712014,9.88816254 C16.0712014,9.80265018 16.0712014,9.71713781 15.985689,9.54611307 L15.985689,9.03303887 L15.985689,3.30371025 L17.5249117,3.30371025 L17.5249117,9.11855124 C17.5249117,9.28957597 17.610424,9.37508834 17.6959364,9.54611307 C17.7814488,9.63162544 17.9524735,9.71713781 18.1234982,9.71713781 C18.294523,9.71713781 18.4655477,9.63162544 18.5510601,9.54611307 C18.6365724,9.46060071 18.7220848,9.28957597 18.7220848,9.11855124 L18.7220848,3.30371025 L20.1757951,3.30371025 L20.1757951,10.8287986 L18.3800353,10.8287986 L18.3800353,10.230212 C18.2090106,10.4867491 18.0379859,10.6577739 17.8669611,10.8287986 C17.6959364,10.914311 17.4393993,10.9998233 17.2683746,10.9998233 C17.0118375,10.9998233 16.7553004,10.914311 16.5842756,10.8287986 C16.4132509,10.6577739 16.2422261,10.4867491 16.1567138,10.230212 L16.1567138,10.230212 Z M22.5701413,22.4584806 L21.2874558,22.4584806 L21.2874558,23.3136042 C21.2874558,23.484629 21.2019435,23.6556537 21.1164311,23.7411661 C20.9454064,23.8266784 20.7743816,23.9121908 20.6033569,23.9121908 L20.3468198,23.9121908 C20.1757951,23.9121908 20.0047703,23.8266784 19.8337456,23.7411661 C19.7482332,23.6556537 19.6627208,23.484629 19.6627208,23.3136042 L19.6627208,21.6033569 L22.5701413,21.6033569 L22.5701413,20.5772085 L22.5701413,19.4655477 C22.5701413,19.1234982 22.5701413,18.8669611 22.484629,18.610424 C22.3991166,18.2683746 22.3136042,18.0118375 22.0570671,17.8408127 C21.80053,17.669788 21.5439929,17.4987633 21.2019435,17.4132509 C20.859894,17.3277385 20.5178445,17.3277385 20.1757951,17.4132509 C19.8337456,17.4987633 19.5772085,17.5842756 19.3206714,17.7553004 C18.9786219,18.0118375 18.8075972,18.2683746 18.6365724,18.6959364 C18.4655477,19.0379859 18.3800353,19.6365724 18.3800353,20.235159 L18.3800353,22.4584806 C18.3800353,23.3991166 18.6365724,24.0832155 19.1496466,24.5107774 C19.5772085,24.8528269 20.0902827,25.109364 20.6033569,25.109364 L20.7743816,25.109364 C21.3729682,25.109364 21.80053,24.8528269 22.3136042,24.3397527 C22.6556537,23.9977032 22.8266784,23.5701413 22.8266784,23.0570671 C22.6556537,22.8860424 22.6556537,22.7150177 22.5701413,22.4584806 L22.5701413,22.4584806 Z M21.2874558,20.3206714 L19.6627208,20.3206714 L19.6627208,19.4655477 C19.6627208,19.294523 19.7482332,19.1234982 19.919258,18.9524735 C20.0902827,18.8669611 20.2613074,18.7814488 20.4323322,18.7814488 L20.5178445,18.7814488 C20.7743816,18.7814488 20.9454064,18.8669611 21.0309187,18.9524735 C21.2019435,19.0379859 21.2874558,19.2090106 21.2874558,19.4655477 L21.2874558,20.3206714 L21.2874558,20.3206714 Z" id="Shape" fill="#000000" sketch:type="MSShapeGroup"></path>
    </g>
</svg>